# xmcd
#
# Track frame offsets: 
#        150
#        23470
#        42526
#        53166
#        67920
#        83152
#        102109
#        117302
#        137597
#        152670
#
# Disc length: 2198 seconds
#
# Revision: 0
# Processed by: cddbd v1.5.2PL0 Copyright (c) Steve Scherf et al.
# Submitted via: ExactAudioCopy v1.0b3
#
DISCID=7608940a
DTITLE=IKSLIM - 4 You
DYEAR=2011
DGENRE=Instrumental Rock
TTITLE0=Love
TTITLE1=You
TTITLE2=Your Smile
TTITLE3=Dancing with You
TTITLE4=Morning with You
TTITLE5=I'm in Alt
TTITLE6=You and Me
TTITLE7=You like a Bird
TTITLE8=Your Lake
TTITLE9=See You
EXTD=UPC:030955716497
EXTT0=ISRC:QM-T5U-11-00101
EXTT1=ISRC:QM-T5U-11-00102
EXTT2=ISRC:QM-T5U-11-00103
EXTT3=ISRC:QM-T5U-11-00104
EXTT4=ISRC:QM-T5U-11-00105
EXTT5=ISRC:QM-T5U-11-00106
EXTT6=ISRC:QM-T5U-11-00107
EXTT7=ISRC:QM-T5U-11-00108
EXTT8=ISRC:QM-T5U-11-00109
EXTT9=ISRC:QM-T5U-11-00110
PLAYORDER=
